<?xml version="1.0" standalone="no"?>
<!DOCTYPE svg PUBLIC "-//W3C//DTD SVG 20010904//EN"
 "http://www.w3.org/TR/2001/REC-SVG-20010904/DTD/svg10.dtd">
<svg version="1.0" xmlns="http://www.w3.org/2000/svg"
 width="70.000000pt" height="70.000000pt" viewBox="0 0 70.000000 70.000000"
 preserveAspectRatio="xMidYMid meet">
<metadata>
Created by potrace 1.14, written by Peter Selinger 2001-2017
</metadata>
<g transform="translate(0.000000,70.000000) scale(0.100000,-0.100000)"
fill="#000000" stroke="none">
<path d="M285 663 c-247 -54 -338 -361 -161 -538 66 -65 126 -89 226 -89 101
0 159 23 224 88 143 142 120 381 -47 491 -71 47 -165 65 -242 48z m136 -16
c64 -15 137 -62 175 -112 37 -49 64 -142 59 -209 -8 -121 -92 -226 -212 -265
-95 -31 -176 -21 -260 32 -226 142 -162 495 101 558 47 11 76 10 137 -4z"/>
<path d="M126 451 c-2 -3 -6 -28 -9 -56 -5 -41 -5 -45 4 -23 6 15 20 29 32 31
l22 4 -22 2 c-33 2 -29 29 5 33 l27 3 -28 6 c-15 4 -29 4 -31 0z"/>
<path d="M387 443 c-3 -10 -8 -36 -11 -58 l-5 -40 13 35 c7 19 19 35 27 35 10
0 13 -11 12 -35 -2 -35 -2 -35 9 -7 13 35 4 57 -21 57 -14 0 -19 5 -15 15 4 8
4 15 1 15 -3 0 -8 -8 -10 -17z"/>
<path d="M200 438 c-1 -7 -3 -31 -6 -53 -7 -45 4 -44 12 1 2 16 7 34 9 41 2 7
0 15 -5 18 -6 4 -10 0 -10 -7z"/>
<path d="M236 421 c-4 -5 4 -7 15 -4 16 4 20 2 17 -8 -3 -8 -10 -14 -16 -14
-17 0 -35 -22 -27 -35 12 -20 50 -7 56 20 3 14 3 31 1 38 -5 14 -38 16 -46 3z
m34 -43 c0 -11 -29 -23 -36 -15 -3 3 -4 10 0 15 7 11 36 11 36 0z"/>
<path d="M311 416 c-10 -12 -8 -17 8 -26 27 -14 27 -34 1 -27 -11 3 -20 1 -20
-4 0 -16 48 -9 54 8 6 15 -8 32 -26 33 -5 0 -8 5 -8 11 0 6 9 9 20 6 11 -3 18
-1 14 4 -8 14 -30 11 -43 -5z"/>
<path d="M247 283 c-10 -9 -9 -73 1 -73 5 0 8 10 7 23 -3 25 13 49 26 41 5 -3
9 -18 9 -35 0 -16 4 -29 9 -29 10 0 7 53 -4 70 -7 11 -38 13 -48 3z"/>
<path d="M322 273 c-13 -23 6 -75 26 -71 8 2 18 10 20 18 4 12 3 13 -10 3 -8
-7 -18 -10 -21 -6 -14 13 -6 23 18 23 29 0 36 34 9 44 -24 9 -32 7 -42 -11z
m42 -14 c-7 -11 -34 -12 -34 -1 0 14 11 21 26 15 8 -3 11 -9 8 -14z"/>
<path d="M390 273 c0 -12 5 -34 11 -50 l11 -28 12 30 13 30 7 -30 c9 -34 19
-23 31 34 5 23 4 31 -4 27 -6 -4 -11 -17 -12 -29 -1 -19 -2 -18 -14 8 l-13 30
-7 -27 c-4 -16 -11 -25 -16 -22 -5 3 -7 9 -5 13 3 4 1 13 -5 21 -7 12 -9 10
-9 -7z"/>
<path d="M494 275 c-7 -18 3 -35 22 -35 8 0 14 -4 14 -10 0 -5 -10 -10 -22
-10 -21 -1 -21 -2 -5 -11 13 -8 22 -7 32 1 18 15 9 37 -17 43 -12 3 -17 10
-13 17 4 6 13 9 21 6 8 -3 14 -1 14 4 0 16 -40 12 -46 -5z"/>
</g>
</svg>
